STARTFONT 2.1
FONT -MIT-25FGB KST-Medium-R-Normal--25-9-200-200-P-16-ISO8859-1
SIZE 9 200 200
FONTBOUNDINGBOX 17 25 -7 -5
STARTPROPERTIES 17
ADD_STYLE_NAME ""
AVERAGE_WIDTH 16
CHARSET_ENCODING "1"
CHARSET_REGISTRY "ISO8859"
DEFAULT_CHAR 0
FAMILY "25FGB KST"
FONT_ASCENT 20
FONT_DESCENT 5
FOUNDRY "MIT"
PIXEL_SIZE 25
POINT_SIZE 9
RESOLUTION_X 200
RESOLUTION_Y 200
SETWIDTH_NAME "Normal"
SLANT "R"
SPACING "P"
WEIGHT_NAME "Medium"
ENDPROPERTIES
CHARS 127
STARTCHAR char1
ENCODING 1
SWIDTH 1887 0
DWIDTH 17 0
BBX 13 25 1 -5
BITMAP
0700
0700
0700
0700
0700
0700
0700
0700
0700
0700
C718
E738
F778
7770
7FF0
3FE0
1FC0
1FC0
0F80
0700
0000
0000
0000
0000
0000
ENDCHAR
STARTCHAR char2
ENCODING 2
SWIDTH 1887 0
DWIDTH 17 0
BBX 15 25 0 -5
BITMAP
0000
0000
0000
0000
0000
0000
000E
1F1C
3F9C
71F8
60F8
E0F0
E070
E070
E070
E0F0
60F8
71F8
3F9E
1F06
0000
0000
0000
0000
0000
ENDCHAR
STARTCHAR char3
ENCODING 3
SWIDTH 1887 0
DWIDTH 17 0
BBX 15 25 0 -5
BITMAP
00F0
03F8
07FC
0F3C
1E1C
1C1C
3838
3838
7070
70E0
71E0
70F8
F03C
F01E
F01E
F01E
F01E
FC3C
FFF8
EFF0
E000
E000
E000
E000
E000
ENDCHAR
STARTCHAR char4
ENCODING 4
SWIDTH 1887 0
DWIDTH 17 0
BBX 15 25 0 -5
BITMAP
0000
0000
0000
0000
0000
0000
0000
0380
07C0
0EE0
0EE0
1C70
1C70
3838
3838
701C
701C
E00E
E00E
C006
0000
0000
0000
0000
0000
ENDCHAR
STARTCHAR char5
ENCODING 5
SWIDTH 1887 0
DWIDTH 17 0
BBX 15 25 0 -5
BITMAP
0000
0000
0000
0000
0000
0000
0000
0000
0000
0000
FFFE
FFFE
000E
000E
000E
000E
0000
0000
0000
0000
0000
0000
0000
0000
0000
ENDCHAR
STARTCHAR char6
ENCODING 6
SWIDTH 1887 0
DWIDTH 17 0
BBX 10 25 2 -5
BITMAP
0000
0000
0000
0000
0000
0000
0000
0FC0
3E00
7800
7000
E000
E000
FF00
E000
E000
7000
7800
3E00
0FC0
0000
0000
0000
0000
0000
ENDCHAR
STARTCHAR char7
ENCODING 7
SWIDTH 1887 0
DWIDTH 17 0
BBX 15 25 0 -5
BITMAP
0000
0000
0000
0000
0000
0000
0000
3F8E
FFFE
EEF8
CE70
0E70
1C70
1C70
1C70
1C38
3838
3838
381C
381C
0000
0000
0000
0000
0000
ENDCHAR
STARTCHAR char8
ENCODING 8
SWIDTH 1887 0
DWIDTH 17 0
BBX 15 25 0 -5
BITMAP
0000
0000
7C00
FE00
CF00
C700
0380
0380
01C0
01C0
01C0
03E0
07E0
0FE0
1E70
3C70
7838
7038
E01C
E01E
0000
0000
0000
0000
0000
ENDCHAR
STARTCHAR char9
ENCODING 9
SWIDTH 1887 0
DWIDTH 17 0
BBX 14 25 0 -5
BITMAP
0000
0000
0000
000C
E01C
F03C
7878
3CF0
1FE0
0FC0
0780
0780
0780
07C0
07C0
07C0
07C0
07C0
0380
0000
0000
0000
0000
0000
0000
ENDCHAR
STARTCHAR char10
ENCODING 10
SWIDTH 1887 0
DWIDTH 17 0
BBX 13 25 0 -5
BITMAP
0000
0000
0000
0FE0
3FF8
7878
7018
7800
3E00
0F80
0FE0
3FF0
7878
E038
E038
E038
F078
7CF0
7FF0
1FC0
0000
0000
0000
0000
0000
ENDCHAR
STARTCHAR char11
ENCODING 11
SWIDTH 1776 0
DWIDTH 16 0
BBX 13 25 1 -5
BITMAP
0700
0F80
1FC0
1FC0
3FE0
7FF0
7770
F778
E738
C718
0700
0700
0700
0700
0700
0700
0700
0700
0700
0700
0000
0000
0000
0000
0000
ENDCHAR
STARTCHAR char12
ENCODING 12
SWIDTH 1887 0
DWIDTH 17 0
BBX 15 25 0 -5
BITMAP
0000
0380
0380
0380
0380
0380
0380
FFFE
FFFE
0380
0380
0380
0380
0380
0380
0000
0000
FFFE
FFFE
0000
0000
0000
0000
0000
0000
ENDCHAR
STARTCHAR char13
ENCODING 13
SWIDTH 1887 0
DWIDTH 17 0
BBX 15 25 0 -5
BITMAP
0000
0000
0000
0000
0000
07C0
1FF0
3BB8
739C
638C
E38E
FFFE
FFFE
E38E
638C
739C
3BB8
1FF0
07C0
0000
0000
0000
0000
0000
0000
ENDCHAR
STARTCHAR char14
ENCODING 14
SWIDTH 1887 0
DWIDTH 17 0
BBX 15 25 0 -5
BITMAP
0000
0000
0000
0000
0000
0000
0000
0000
0000
3C78
7EFC
E7CE
E38E
E38E
E38E
E7CE
7EFC
3C78
0000
0000
0000
0000
0000
0000
0000
ENDCHAR
STARTCHAR char15
ENCODING 15
SWIDTH 1887 0
DWIDTH 17 0
BBX 13 25 1 -5
BITMAP
0F80
1FE0
1C70
0038
0038
0038
0038
0038
0038
1FB8
3FF8
7078
E038
E038
E038
E038
E070
71E0
7FC0
1F80
0000
0000
0000
0000
0000
ENDCHAR
STARTCHAR char16
ENCODING 16
SWIDTH 1887 0
DWIDTH 17 0
BBX 15 25 0 -5
BITMAP
0000
0000
0000
0000
0000
0000
0000
07FE
1FFE
3C00
7800
F000
E000
E000
E000
F000
7800
3C00
1FFE
07FE
0000
0000
0000
0000
0000
ENDCHAR
STARTCHAR char17
ENCODING 17
SWIDTH 1887 0
DWIDTH 17 0
BBX 15 25 0 -5
BITMAP
0000
0000
0000
0000
0000
0000
0000
FFC0
FFF0
0078
003C
001E
000E
000E
000E
001E
003C
0078
FFF0
FFC0
0000
0000
0000
0000
0000
ENDCHAR
STARTCHAR char18
ENCODING 18
SWIDTH 1887 0
DWIDTH 17 0
BBX 12 25 1 -5
BITMAP
0000
0000
0000
0F00
3FC0
79E0
F0F0
E070
E070
E070
E070
E070
E070
E070
E070
E070
E070
E070
E070
E070
0000
0000
0000
0000
0000
ENDCHAR
STARTCHAR char19
ENCODING 19
SWIDTH 1887 0
DWIDTH 17 0
BBX 12 25 1 -5
BITMAP
0000
0000
0000
E070
E070
E070
E070
E070
E070
E070
E070
E070
E070
E070
E070
E070
F0F0
79E0
3FC0
0F00
0000
0000
0000
0000
0000
ENDCHAR
STARTCHAR char20
ENCODING 20
SWIDTH 1887 0
DWIDTH 17 0
BBX 15 25 0 -5
BITMAP
E00E
E00E
701C
701C
701C
3838
3838
3FF8
1FF0
1C70
1C70
0EE0
0EE0
0EE0
07C0
07C0
07C0
0380
0380
0380
0000
0000
0000
0000
0000
ENDCHAR
STARTCHAR char21
ENCODING 21
SWIDTH 1887 0
DWIDTH 17 0
BBX 15 25 0 -5
BITMAP
FFFE
FFFC
001C
001C
001C
001C
001C
001C
001C
07FC
07FC
001C
001C
001C
001C
001C
001C
001C
FFFC
FFFE
0000
0000
0000
0000
0000
ENDCHAR
STARTCHAR char22
ENCODING 22
SWIDTH 1887 0
DWIDTH 17 0
BBX 15 25 0 -5
BITMAP
0000
0000
0000
0000
0000
0000
0000
07C0
1FF0
3838
7C7C
6EEC
E7CE
E38E
E7CE
6EEC
7C7C
3838
1FF0
07C0
0000
0000
0000
0000
0000
ENDCHAR
STARTCHAR char23
ENCODING 23
SWIDTH 1887 0
DWIDTH 17 0
BBX 15 25 0 -5
BITMAP
0000
0000
0000
0000
0000
0000
0000
0000
0C60
1C70
3838
701C
FFFE
FFFE
701C
3838
1C70
0C60
0000
0000
0000
0000
0000
0000
0000
ENDCHAR
STARTCHAR char24
ENCODING 24
SWIDTH 1776 0
DWIDTH 16 0
BBX 15 25 0 -5
BITMAP
0000
0000
0000
0000
0000
0000
0000
0000
0E00
1C00
3800
7000
FFFE
FFFE
7000
3800
1C00
0E00
0000
0000
0000
0000
0000
0000
0000
ENDCHAR
STARTCHAR char25
ENCODING 25
SWIDTH 1887 0
DWIDTH 17 0
BBX 15 25 0 -5
BITMAP
0000
0000
0000
0000
0000
0000
0000
0000
00E0
0070
0038
001C
FFFE
FFFE
001C
0038
0070
00E0
0000
0000
0000
0000
0000
0000
0000
ENDCHAR
STARTCHAR char26
ENCODING 26
SWIDTH 1887 0
DWIDTH 17 0
BBX 13 25 1 -5
BITMAP
0000
0000
0000
0000
0000
0000
0000
0038
0070
00E0
FFF8
FFF8
0380
0700
FFF8
FFF8
3800
7000
E000
0000
0000
0000
0000
0000
0000
ENDCHAR
STARTCHAR char27
ENCODING 27
SWIDTH 1887 0
DWIDTH 17 0
BBX 14 25 0 -5
BITMAP
0000
0000
0300
0300
0780
0780
0FC0
1FE0
3CF0
7878
F87C
7878
3CF0
1FE0
0FC0
0780
0780
0300
0300
0000
0000
0000
0000
0000
0000
ENDCHAR
STARTCHAR char28
ENCODING 28
SWIDTH 1887 0
DWIDTH 17 0
BBX 13 25 1 -5
BITMAP
0000
0000
0000
0000
0038
00F8
03E0
0F80
3E00
F800
F800
3E00
0F80
03E0
00F8
0038
0000
0000
FFF8
FFF8
0000
0000
0000
0000
0000
ENDCHAR
STARTCHAR char29
ENCODING 29
SWIDTH 1887 0
DWIDTH 17 0
BBX 13 25 1 -5
BITMAP
0000
0000
0000
0000
E000
F800
3E00
0F80
03E0
00F8
00F8
03E0
0F80
3E00
F800
E000
0000
0000
FFF8
FFF8
0000
0000
0000
0000
0000
ENDCHAR
STARTCHAR char30
ENCODING 30
SWIDTH 1887 0
DWIDTH 17 0
BBX 13 25 1 -5
BITMAP
0000
0000
0000
0000
0000
0000
0000
0000
FFF8
FFF8
0000
0000
FFF8
FFF8
0000
0000
FFF8
FFF8
0000
0000
0000
0000
0000
0000
0000
ENDCHAR
STARTCHAR char31
ENCODING 31
SWIDTH 1887 0
DWIDTH 17 0
BBX 15 25 0 -5
BITMAP
0000
0000
0000
0000
0000
0000
0000
C006
E00E
E00E
701C
701C
3838
3838
1C70
1C70
0EE0
0EE0
07C0
0380
0000
0000
0000
0000
0000
ENDCHAR
STARTCHAR char32
ENCODING 32
SWIDTH 1887 0
DWIDTH 17 0
BBX 1 25 0 -5
BITMAP
00
00
00
00
00
00
00
00
00
00
00
00
00
00
00
00
00
00
00
00
00
00
00
00
00
ENDCHAR
STARTCHAR char33
ENCODING 33
SWIDTH 1887 0
DWIDTH 17 0
BBX 3 25 6 -5
BITMAP
E0
E0
E0
E0
E0
E0
E0
E0
E0
E0
E0
E0
E0
E0
00
00
00
E0
E0
E0
00
00
00
00
00
ENDCHAR
STARTCHAR char34
ENCODING 34
SWIDTH 1887 0
DWIDTH 17 0
BBX 8 25 3 -5
BITMAP
E7
E7
E7
E7
E7
E7
E7
E7
00
00
00
00
00
00
00
00
00
00
00
00
00
00
00
00
00
ENDCHAR
STARTCHAR char35
ENCODING 35
SWIDTH 1887 0
DWIDTH 17 0
BBX 15 25 0 -5
BITMAP
070E
070E
070E
0E1C
0E1C
7FFE
7FFE
1C38
1C38
1C38
3870
3870
3870
FFFC
FFFC
70E0
70E0
E1C0
E1C0
E1C0
0000
0000
0000
0000
0000
ENDCHAR
STARTCHAR char36
ENCODING 36
SWIDTH 1887 0
DWIDTH 17 0
BBX 13 25 1 -5
BITMAP
1DC0
1DC0
3FE0
7FF0
FDF8
FDF8
FDC0
FDC0
7DC0
3FC0
1FE0
1DF0
1DF8
1DF8
FDF8
FDF8
7FF0
3FE0
1DC0
1DC0
0000
0000
0000
0000
0000
ENDCHAR
STARTCHAR char37
ENCODING 37
SWIDTH 1887 0
DWIDTH 17 0
BBX 15 25 0 -5
BITMAP
001C
3C1C
7E38
E738
E770
E770
7EE0
3CE0
01C0
01C0
0380
0380
0700
0778
0EFC
0FCE
1DCE
1DCE
38FC
3878
0000
0000
0000
0000
0000
ENDCHAR
STARTCHAR char38
ENCODING 38
SWIDTH 1887 0
DWIDTH 17 0
BBX 15 25 0 -5
BITMAP
03E0
0FF0
0E78
1C38
1C38
1E70
0FF0
07C0
1F80
3F80
7BC0
F1E0
F1EE
F0FE
F0FE
F07C
787C
7CFE
3FEE
0FC0
0000
0000
0000
0000
0000
ENDCHAR
STARTCHAR char39
ENCODING 39
SWIDTH 1887 0
DWIDTH 17 0
BBX 6 25 3 -5
BITMAP
78
FC
FC
7C
3C
38
70
60
00
00
00
00
00
00
00
00
00
00
00
00
00
00
00
00
00
ENDCHAR
STARTCHAR char40
ENCODING 40
SWIDTH 1887 0
DWIDTH 17 0
BBX 7 25 6 -5
BITMAP
1E
3C
38
70
70
70
70
F0
F0
F0
F0
F0
F0
70
70
70
70
38
3C
1E
00
00
00
00
00
ENDCHAR
STARTCHAR char41
ENCODING 41
SWIDTH 1887 0
DWIDTH 17 0
BBX 7 25 2 -5
BITMAP
F0
78
38
1C
1C
1C
1C
1E
1E
1E
1E
1E
1E
1C
1C
1C
1C
38
78
F0
00
00
00
00
00
ENDCHAR
STARTCHAR char42
ENCODING 42
SWIDTH 1887 0
DWIDTH 17 0
BBX 15 25 0 -5
BITMAP
0000
0000
0000
0000
0000
0380
07C0
E38E
F39E
FBBE
3FF8
1FF0
0FE0
1FF0
3FF8
FBBE
F39E
E38E
07C0
0380
0000
0000
0000
0000
0000
ENDCHAR
STARTCHAR char43
ENCODING 43
SWIDTH 1887 0
DWIDTH 17 0
BBX 15 25 0 -5
BITMAP
0000
0000
0000
0000
0000
0000
0380
0380
0380
0380
0380
0380
FFFE
FFFE
0380
0380
0380
0380
0380
0380
0000
0000
0000
0000
0000
ENDCHAR
STARTCHAR char44
ENCODING 44
SWIDTH 1887 0
DWIDTH 17 0
BBX 6 25 3 -5
BITMAP
00
00
00
00
00
00
00
00
00
00
00
00
00
00
00
00
78
FC
FC
7C
3C
38
70
60
00
ENDCHAR
STARTCHAR char45
ENCODING 45
SWIDTH 1887 0
DWIDTH 17 0
BBX 13 25 1 -5
BITMAP
0000
0000
0000
0000
0000
0000
0000
0000
0000
0000
0000
0000
FFF8
FFF8
0000
0000
0000
0000
0000
0000
0000
0000
0000
0000
0000
ENDCHAR
STARTCHAR char46
ENCODING 46
SWIDTH 1887 0
DWIDTH 17 0
BBX 6 25 3 -5
BITMAP
00
00
00
00
00
00
00
00
00
00
00
00
00
00
00
78
FC
FC
FC
78
00
00
00
00
00
ENDCHAR
STARTCHAR char47
ENCODING 47
SWIDTH 1887 0
DWIDTH 17 0
BBX 13 25 1 -5
BITMAP
0078
0070
00F0
00E0
01E0
01C0
03C0
0380
0780
0700
0F00
0E00
1E00
1C00
3C00
3800
7800
7000
F000
E000
0000
0000
0000
0000
0000
ENDCHAR
STARTCHAR char48
ENCODING 48
SWIDTH 1887 0
DWIDTH 17 0
BBX 15 25 0 -5
BITMAP
0FE0
1FF0
3C7E
783E
703E
703C
707C
70FC
71FC
73DC
779C
7F1C
7E1C
7C1C
781C
F81C
F83C
FC78
1FF0
0FE0
0000
0000
0000
0000
0000
ENDCHAR
STARTCHAR char49
ENCODING 49
SWIDTH 1887 0
DWIDTH 17 0
BBX 11 25 1 -5
BITMAP
1E00
3E00
7E00
EE00
0E00
0E00
0E00
0E00
0E00
0E00
0E00
0E00
0E00
0E00
0E00
0E00
0E00
0E00
FFE0
FFE0
0000
0000
0000
0000
0000
ENDCHAR
STARTCHAR char50
ENCODING 50
SWIDTH 1887 0
DWIDTH 17 0
BBX 14 25 0 -5
BITMAP
1FE0
7FF8
7038
E01C
E01C
001C
001C
0038
0070
00E0
01C0
0380
0700
0E00
1C00
3800
7000
E000
FFFC
FFFC
0000
0000
0000
0000
0000
ENDCHAR
STARTCHAR char51
ENCODING 51
SWIDTH 1887 0
DWIDTH 17 0
BBX 14 25 0 -5
BITMAP
1FE0
7FF8
7038
E01C
E01C
001C
0038
0038
0070
07E0
07E0
0070
0038
0038
001C
E01C
E01C
7038
7FF8
1FE0
0000
0000
0000
0000
0000
ENDCHAR
STARTCHAR char52
ENCODING 52
SWIDTH 1887 0
DWIDTH 17 0
BBX 14 25 0 -5
BITMAP
0380
0780
0700
0E00
0E00
1C00
1C00
38E0
38E0
70E0
70E0
E0E0
E0E0
FFFC
FFFC
00E0
00E0
00E0
00E0
00E0
0000
0000
0000
0000
0000
ENDCHAR
STARTCHAR char53
ENCODING 53
SWIDTH 1887 0
DWIDTH 17 0
BBX 14 25 0 -5
BITMAP
FFF8
FFF8
E000
E000
E000
E000
E000
E000
E000
FFE0
FFF8
0038
001C
001C
001C
E01C
E01C
7038
7FF8
1FE0
0000
0000
0000
0000
0000
ENDCHAR
STARTCHAR char54
ENCODING 54
SWIDTH 1887 0
DWIDTH 17 0
BBX 14 25 0 -5
BITMAP
1FE0
7FF8
7038
E01C
E01C
E000
E000
E000
E000
E780
FFE0
FCF8
F038
E01C
E01C
E01C
E01C
7038
7FF8
1FE0
0000
0000
0000
0000
0000
ENDCHAR
STARTCHAR char55
ENCODING 55
SWIDTH 1887 0
DWIDTH 17 0
BBX 14 25 0 -5
BITMAP
FFFC
FFFC
003C
0038
0038
0070
0070
00E0
00E0
01C0
01C0
0380
0380
0700
0700
0E00
0E00
1C00
1C00
1C00
0000
0000
0000
0000
0000
ENDCHAR
STARTCHAR char56
ENCODING 56
SWIDTH 1887 0
DWIDTH 17 0
BBX 14 25 0 -5
BITMAP
0FC0
3FF0
3870
7038
7038
7038
3870
3FF0
0FC0
0780
1FE0
7CF8
7038
E01C
E01C
E01C
E01C
7038
7FF8
1FE0
0000
0000
0000
0000
0000
ENDCHAR
STARTCHAR char57
ENCODING 57
SWIDTH 1887 0
DWIDTH 17 0
BBX 14 25 0 -5
BITMAP
1FE0
7FF8
7038
E01C
E01C
E01C
E01C
703C
7CFC
1FFC
079C
001C
001C
001C
001C
E01C
E01C
7038
7FF8
1FE0
0000
0000
0000
0000
0000
ENDCHAR
STARTCHAR char58
ENCODING 58
SWIDTH 1887 0
DWIDTH 17 0
BBX 6 25 3 -5
BITMAP
00
00
00
00
00
00
00
78
FC
FC
FC
78
00
00
00
78
FC
FC
FC
78
00
00
00
00
00
ENDCHAR
STARTCHAR char59
ENCODING 59
SWIDTH 1887 0
DWIDTH 17 0
BBX 6 25 3 -5
BITMAP
00
00
00
00
00
00
00
00
78
FC
FC
FC
78
00
00
00
78
FC
FC
7C
3C
38
70
60
00
ENDCHAR
STARTCHAR char60
ENCODING 60
SWIDTH 1887 0
DWIDTH 17 0
BBX 13 25 1 -5
BITMAP
0000
0000
0000
0000
0000
0000
0000
0038
00F8
03E0
0F80
3E00
F800
F800
3E00
0F80
03E0
00F8
0038
0000
0000
0000
0000
0000
0000
ENDCHAR
STARTCHAR char61
ENCODING 61
SWIDTH 1887 0
DWIDTH 17 0
BBX 13 25 1 -5
BITMAP
0000
0000
0000
0000
0000
0000
0000
0000
0000
0000
FFF8
FFF8
0000
0000
FFF8
FFF8
0000
0000
0000
0000
0000
0000
0000
0000
0000
ENDCHAR
STARTCHAR char62
ENCODING 62
SWIDTH 1887 0
DWIDTH 17 0
BBX 13 25 1 -5
BITMAP
0000
0000
0000
0000
0000
0000
0000
E000
F800
3E00
0F80
03E0
00F8
00F8
03E0
0F80
3E00
F800
E000
0000
0000
0000
0000
0000
0000
ENDCHAR
STARTCHAR char63
ENCODING 63
SWIDTH 1887 0
DWIDTH 17 0
BBX 13 25 1 -5
BITMAP
1FC0
3FE0
78F0
F078
E038
0038
0038
0078
00F0
01E0
03C0
0780
0F00
0E00
0E00
0000
0000
0F00
0F00
0F00
0000
0000
0000
0000
0000
ENDCHAR
STARTCHAR char64
ENCODING 64
SWIDTH 1887 0
DWIDTH 17 0
BBX 15 25 0 -5
BITMAP
0000
0000
0000
0000
0000
0000
0FE0
3FF8
703C
E01E
E7CE
EFFE
EE7E
EE7E
EFFC
E7F8
F000
781E
3FFC
0FF0
0000
0000
0000
0000
0000
ENDCHAR
STARTCHAR char65
ENCODING 65
SWIDTH 1887 0
DWIDTH 17 0
BBX 14 25 0 -5
BITMAP
0300
0780
0780
0FC0
0FC0
0FC0
1CE0
1CE0
1CE0
3870
3870
3870
7FF8
7FF8
7038
7038
F03C
E01C
E01C
E01C
0000
0000
0000
0000
0000
ENDCHAR
STARTCHAR char66
ENCODING 66
SWIDTH 1887 0
DWIDTH 17 0
BBX 14 25 0 -5
BITMAP
FFC0
FFF0
E070
E038
E038
E038
E038
E038
E070
FFF0
FFF8
E038
E01C
E01C
E01C
E01C
E01C
E038
FFF8
FFE0
0000
0000
0000
0000
0000
ENDCHAR
STARTCHAR char67
ENCODING 67
SWIDTH 1887 0
DWIDTH 17 0
BBX 14 25 0 -5
BITMAP
1FE0
7FF8
7038
E01C
E01C
E000
E000
E000
E000
E000
E000
E000
E000
E000
E000
E01C
E01C
7038
7FF8
1FE0
0000
0000
0000
0000
0000
ENDCHAR
STARTCHAR char68
ENCODING 68
SWIDTH 1887 0
DWIDTH 17 0
BBX 14 25 0 -5
BITMAP
FFE0
FFF8
E038
E01C
E01C
E01C
E01C
E01C
E01C
E01C
E01C
E01C
E01C
E01C
E01C
E01C
E01C
E038
FFF8
FFE0
0000
0000
0000
0000
0000
ENDCHAR
STARTCHAR char69
ENCODING 69
SWIDTH 1887 0
DWIDTH 17 0
BBX 14 25 0 -5
BITMAP
FFFC
FFFC
E000
E000
E000
E000
E000
E000
E000
FFF0
FFF0
E000
E000
E000
E000
E000
E000
E000
FFFC
FFFC
0000
0000
0000
0000
0000
ENDCHAR
STARTCHAR char70
ENCODING 70
SWIDTH 1887 0
DWIDTH 17 0
BBX 14 25 0 -5
BITMAP
FFFC
FFFC
E000
E000
E000
E000
E000
E000
E000
FFF0
FFF0
E000
E000
E000
E000
E000
E000
E000
E000
E000
0000
0000
0000
0000
0000
ENDCHAR
STARTCHAR char71
ENCODING 71
SWIDTH 1887 0
DWIDTH 17 0
BBX 14 25 0 -5
BITMAP
1FE0
7FF8
7038
E01C
E01C
E000
E000
E000
E000
E000
E000
E0FC
E0FC
E01C
E01C
E01C
E01C
7038
7FF8
1FE0
0000
0000
0000
0000
0000
ENDCHAR
STARTCHAR char72
ENCODING 72
SWIDTH 1887 0
DWIDTH 17 0
BBX 14 25 0 -5
BITMAP
E01C
E01C
E01C
E01C
E01C
E01C
E01C
E01C
E01C
FFFC
FFFC
E01C
E01C
E01C
E01C
E01C
E01C
E01C
E01C
E01C
0000
0000
0000
0000
0000
ENDCHAR
STARTCHAR char73
ENCODING 73
SWIDTH 1887 0
DWIDTH 17 0
BBX 7 25 3 -5
BITMAP
FE
FE
38
38
38
38
38
38
38
38
38
38
38
38
38
38
38
38
FE
FE
00
00
00
00
00
ENDCHAR
STARTCHAR char74
ENCODING 74
SWIDTH 1887 0
DWIDTH 17 0
BBX 14 25 0 -5
BITMAP
001C
001C
001C
001C
001C
001C
001C
001C
001C
001C
001C
001C
001C
001C
001C
E01C
E01C
7038
7FF8
1FE0
0000
0000
0000
0000
0000
ENDCHAR
STARTCHAR char75
ENCODING 75
SWIDTH 1887 0
DWIDTH 17 0
BBX 14 25 0 -5
BITMAP
E01C
E03C
E078
E0F0
E1E0
E3C0
E780
EF00
FE00
FC00
F800
FC00
FE00
EF00
E780
E3C0
E1E0
E0F0
E078
E038
0000
0000
0000
0000
0000
ENDCHAR
STARTCHAR char76
ENCODING 76
SWIDTH 1887 0
DWIDTH 17 0
BBX 14 25 0 -5
BITMAP
E000
E000
E000
E000
E000
E000
E000
E000
E000
E000
E000
E000
E000
E000
E000
E000
E000
E000
FFFC
FFFC
0000
0000
0000
0000
0000
ENDCHAR
STARTCHAR char77
ENCODING 77
SWIDTH 1887 0
DWIDTH 17 0
BBX 14 25 0 -5
BITMAP
E01C
F03C
F87C
FCFC
FFFC
EFDC
E79C
E31C
E31C
E01C
E01C
E01C
E01C
E01C
E01C
E01C
E01C
E01C
E01C
E01C
0000
0000
0000
0000
0000
ENDCHAR
STARTCHAR char78
ENCODING 78
SWIDTH 1887 0
DWIDTH 17 0
BBX 14 25 0 -5
BITMAP
F01C
F01C
F81C
F81C
FC1C
FC1C
EE1C
EE1C
E71C
E71C
E39C
E39C
E1DC
E1DC
E0FC
E0FC
E07C
E07C
E03C
E03C
0000
0000
0000
0000
0000
ENDCHAR
STARTCHAR char79
ENCODING 79
SWIDTH 1887 0
DWIDTH 17 0
BBX 14 25 0 -5
BITMAP
1FE0
7FF8
7038
E01C
E01C
E01C
E01C
E01C
E01C
E01C
E01C
E01C
E01C
E01C
E01C
E01C
E01C
7038
7FF8
1FE0
0000
0000
0000
0000
0000
ENDCHAR
STARTCHAR char80
ENCODING 80
SWIDTH 1887 0
DWIDTH 17 0
BBX 14 25 0 -5
BITMAP
FFE0
FFF8
E038
E01C
E01C
E01C
E01C
E01C
E038
FFF8
FFE0
E000
E000
E000
E000
E000
E000
E000
E000
E000
0000
0000
0000
0000
0000
ENDCHAR
STARTCHAR char81
ENCODING 81
SWIDTH 1887 0
DWIDTH 17 0
BBX 15 25 0 -5
BITMAP
1FE0
7FF8
7038
E01C
E01C
E01C
E01C
E01C
E01C
E01C
E01C
E01C
E01C
E01C
E01C
E0FC
E0FC
7078
7FFC
1FFE
000E
0000
0000
0000
0000
ENDCHAR
STARTCHAR char82
ENCODING 82
SWIDTH 1887 0
DWIDTH 17 0
BBX 14 25 0 -5
BITMAP
FFE0
FFF8
E038
E01C
E01C
E01C
E01C
E01C
E038
FFF8
FFE0
E070
E070
E038
E038
E038
E038
E038
E01C
E01C
0000
0000
0000
0000
0000
ENDCHAR
STARTCHAR char83
ENCODING 83
SWIDTH 1887 0
DWIDTH 17 0
BBX 14 25 0 -5
BITMAP
1FE0
7FF8
7038
E01C
E01C
E000
E000
E000
7000
7FF0
1FF8
0038
001C
001C
001C
E01C
E01C
7038
7FF8
1FE0
0000
0000
0000
0000
0000
ENDCHAR
STARTCHAR char84
ENCODING 84
SWIDTH 1887 0
DWIDTH 17 0
BBX 13 25 1 -5
BITMAP
FFF8
FFF8
0700
0700
0700
0700
0700
0700
0700
0700
0700
0700
0700
0700
0700
0700
0700
0700
0700
0700
0000
0000
0000
0000
0000
ENDCHAR
STARTCHAR char85
ENCODING 85
SWIDTH 1887 0
DWIDTH 17 0
BBX 14 25 0 -5
BITMAP
E01C
E01C
E01C
E01C
E01C
E01C
E01C
E01C
E01C
E01C
E01C
E01C
E01C
E01C
E01C
E01C
E01C
7038
7FF8
1FE0
0000
0000
0000
0000
0000
ENDCHAR
STARTCHAR char86
ENCODING 86
SWIDTH 1887 0
DWIDTH 17 0
BBX 14 25 0 -5
BITMAP
E01C
E01C
7038
7038
7038
3870
3870
3870
1CE0
1CE0
1CE0
0FC0
0FC0
0FC0
0780
0780
0780
0300
0300
0300
0000
0000
0000
0000
0000
ENDCHAR
STARTCHAR char87
ENCODING 87
SWIDTH 1887 0
DWIDTH 17 0
BBX 14 25 0 -5
BITMAP
E01C
E01C
E01C
E01C
E01C
E01C
E01C
E01C
E01C
E01C
E01C
E31C
E31C
E79C
EFDC
FFFC
FCFC
F87C
F03C
E01C
0000
0000
0000
0000
0000
ENDCHAR
STARTCHAR char88
ENCODING 88
SWIDTH 1887 0
DWIDTH 17 0
BBX 14 25 0 -5
BITMAP
E01C
E01C
7038
7038
3870
3870
1CE0
1CE0
0FC0
0FC0
0FC0
0FC0
1CE0
1CE0
3870
3870
7038
7038
E01C
E01C
0000
0000
0000
0000
0000
ENDCHAR
STARTCHAR char89
ENCODING 89
SWIDTH 1887 0
DWIDTH 17 0
BBX 13 25 1 -5
BITMAP
C018
C018
E038
E038
7070
7070
38E0
38E0
1DC0
1FC0
0F80
0700
0700
0700
0700
0700
0700
0700
0700
0700
0000
0000
0000
0000
0000
ENDCHAR
STARTCHAR char90
ENCODING 90
SWIDTH 1887 0
DWIDTH 17 0
BBX 14 25 0 -5
BITMAP
FFFC
FFFC
003C
0038
0070
00F0
00E0
01C0
03C0
0380
0700
0F00
0E00
1C00
3C00
3800
7000
F000
FFFC
FFFC
0000
0000
0000
0000
0000
ENDCHAR
STARTCHAR char91
ENCODING 91
SWIDTH 1776 0
DWIDTH 16 0
BBX 7 25 7 -5
BITMAP
FE
FE
E0
E0
E0
E0
E0
E0
E0
E0
E0
E0
E0
E0
E0
E0
E0
E0
FE
FE
00
00
00
00
00
ENDCHAR
STARTCHAR char92
ENCODING 92
SWIDTH 1776 0
DWIDTH 16 0
BBX 13 25 1 -5
BITMAP
F000
7000
7800
3800
3C00
1C00
1E00
0E00
0F00
0700
0780
0380
03C0
01C0
01E0
00E0
00F0
0070
0078
0038
0000
0000
0000
0000
0000
ENDCHAR
STARTCHAR char93
ENCODING 93
SWIDTH 1776 0
DWIDTH 16 0
BBX 7 25 1 -5
BITMAP
FE
FE
0E
0E
0E
0E
0E
0E
0E
0E
0E
0E
0E
0E
0E
0E
0E
0E
FE
FE
00
00
00
00
00
ENDCHAR
STARTCHAR char94
ENCODING 94
SWIDTH 1887 0
DWIDTH 17 0
BBX 15 25 0 -5
BITMAP
0180
03C0
07E0
0FF0
1E78
3C3C
781E
F00E
0000
0000
0000
0000
0000
0000
0000
0000
0000
0000
0000
0000
0000
0000
0000
0000
0000
ENDCHAR
STARTCHAR char95
ENCODING 95
SWIDTH 1887 0
DWIDTH 17 0
BBX 17 25 0 -5
BITMAP
000000
000000
000000
000000
000000
000000
000000
000000
000000
000000
000000
000000
000000
000000
000000
000000
000000
000000
000000
000000
000000
000000
FFFF80
FFFF80
000000
ENDCHAR
STARTCHAR char96
ENCODING 96
SWIDTH 1776 0
DWIDTH 16 0
BBX 6 25 6 -5
BITMAP
18
38
70
F0
F8
FC
FC
78
00
00
00
00
00
00
00
00
00
00
00
00
00
00
00
00
00
ENDCHAR
STARTCHAR char97
ENCODING 97
SWIDTH 1887 0
DWIDTH 17 0
BBX 13 25 1 -5
BITMAP
0000
0000
0000
0000
0000
0000
1FE0
3FF0
7038
7038
0038
00F8
0FF8
7FB8
F038
E038
E078
E0F8
7FF8
3FB8
0000
0000
0000
0000
0000
ENDCHAR
STARTCHAR char98
ENCODING 98
SWIDTH 1887 0
DWIDTH 17 0
BBX 13 25 1 -5
BITMAP
0000
0000
0000
E000
E000
E000
E000
E7C0
FFF0
F870
F038
E038
E038
E038
E038
E038
F038
F870
FFF0
E7C0
0000
0000
0000
0000
0000
ENDCHAR
STARTCHAR char99
ENCODING 99
SWIDTH 1887 0
DWIDTH 17 0
BBX 13 25 1 -5
BITMAP
0000
0000
0000
0000
0000
0000
0000
1FE0
7FF0
7038
E038
E000
E000
E000
E000
E000
E038
7038
7FF0
1FE0
0000
0000
0000
0000
0000
ENDCHAR
STARTCHAR char100
ENCODING 100
SWIDTH 1887 0
DWIDTH 17 0
BBX 13 25 1 -5
BITMAP
0000
0000
0038
0038
0038
0038
0038
1F38
7FF8
70F8
E078
E038
E038
E038
E038
E038
E078
70F8
7FF8
1F38
0000
0000
0000
0000
0000
ENDCHAR
STARTCHAR char101
ENCODING 101
SWIDTH 1887 0
DWIDTH 17 0
BBX 13 25 1 -5
BITMAP
0000
0000
0000
0000
0000
0000
0000
1FC0
7FF0
7070
E038
E038
FFF8
FFF8
E000
E000
E038
7038
7FF0
1FE0
0000
0000
0000
0000
0000
ENDCHAR
STARTCHAR char102
ENCODING 102
SWIDTH 1887 0
DWIDTH 17 0
BBX 10 25 3 -5
BITMAP
0000
0000
07C0
0FC0
1C00
1C00
1C00
1C00
FFC0
FFC0
1C00
1C00
1C00
1C00
1C00
1C00
1C00
1C00
1C00
1C00
0000
0000
0000
0000
0000
ENDCHAR
STARTCHAR char103
ENCODING 103
SWIDTH 1887 0
DWIDTH 17 0
BBX 13 25 1 -5
BITMAP
0000
0000
0000
0000
0000
0000
0000
1F38
7FF8
70F8
E078
E038
E038
E038
E038
E038
E078
70F8
7FF8
1F38
0038
0038
7070
7FF0
3FC0
ENDCHAR
STARTCHAR char104
ENCODING 104
SWIDTH 1887 0
DWIDTH 17 0
BBX 13 25 1 -5
BITMAP
0000
0000
E000
E000
E000
E000
E000
E7C0
FFF0
FC70
F038
E038
E038
E038
E038
E038
E038
E038
E038
E038
0000
0000
0000
0000
0000
ENDCHAR
STARTCHAR char105
ENCODING 105
SWIDTH 1887 0
DWIDTH 17 0
BBX 4 25 5 -5
BITMAP
00
F0
F0
F0
00
00
00
70
70
70
70
70
70
70
70
70
70
70
70
70
00
00
00
00
00
ENDCHAR
STARTCHAR char106
ENCODING 106
SWIDTH 1887 0
DWIDTH 17 0
BBX 7 25 4 -5
BITMAP
00
00
1E
1E
1E
00
00
00
0E
0E
0E
0E
0E
0E
0E
0E
0E
0E
0E
0E
0E
0E
0E
FC
F8
ENDCHAR
STARTCHAR char107
ENCODING 107
SWIDTH 1887 0
DWIDTH 17 0
BBX 13 25 1 -5
BITMAP
0000
0000
E000
E000
E000
E000
E000
E1E0
E3C0
E780
EF00
FE00
FE00
FF00
F780
E3C0
E1E0
E0F0
E078
E038
0000
0000
0000
0000
0000
ENDCHAR
STARTCHAR char108
ENCODING 108
SWIDTH 1887 0
DWIDTH 17 0
BBX 3 25 6 -5
BITMAP
00
E0
E0
E0
E0
E0
E0
E0
E0
E0
E0
E0
E0
E0
E0
E0
E0
E0
E0
E0
00
00
00
00
00
ENDCHAR
STARTCHAR char109
ENCODING 109
SWIDTH 1887 0
DWIDTH 17 0
BBX 13 25 1 -5
BITMAP
0000
0000
0000
0000
0000
0000
E000
FEF0
FFF8
E738
E738
E738
E738
E738
E738
E738
E738
E738
E738
E738
0000
0000
0000
0000
0000
ENDCHAR
STARTCHAR char110
ENCODING 110
SWIDTH 1887 0
DWIDTH 17 0
BBX 13 25 1 -5
BITMAP
0000
0000
0000
0000
0000
0000
0000
EFE0
FFF0
F878
F038
E038
E038
E038
E038
E038
E038
E038
E038
E038
0000
0000
0000
0000
0000
ENDCHAR
STARTCHAR char111
ENCODING 111
SWIDTH 1887 0
DWIDTH 17 0
BBX 13 25 1 -5
BITMAP
0000
0000
0000
0000
0000
0000
0000
1FC0
7FF0
7070
E038
E038
E038
E038
E038
E038
E038
7070
7FF0
1FC0
0000
0000
0000
0000
0000
ENDCHAR
STARTCHAR char112
ENCODING 112
SWIDTH 1887 0
DWIDTH 17 0
BBX 13 25 1 -5
BITMAP
0000
0000
0000
0000
0000
0000
E000
E7C0
FFF0
F870
F038
E038
E038
E038
E038
E038
F038
F870
FFF0
E7C0
E000
E000
E000
E000
E000
ENDCHAR
STARTCHAR char113
ENCODING 113
SWIDTH 1887 0
DWIDTH 17 0
BBX 13 25 1 -5
BITMAP
0000
0000
0000
0000
0000
0000
0000
1F38
7FF8
70F8
E078
E038
E038
E038
E038
E038
E078
70F8
7FF8
1F38
0038
0038
0038
0038
0038
ENDCHAR
STARTCHAR char114
ENCODING 114
SWIDTH 1887 0
DWIDTH 17 0
BBX 12 25 1 -5
BITMAP
0000
0000
0000
0000
0000
0000
0000
E780
FFE0
FCF0
F070
E000
E000
E000
E000
E000
E000
E000
E000
E000
0000
0000
0000
0000
0000
ENDCHAR
STARTCHAR char115
ENCODING 115
SWIDTH 1887 0
DWIDTH 17 0
BBX 12 25 2 -5
BITMAP
0000
0000
0000
0000
0000
0000
0000
3FC0
7FE0
E070
E070
E000
FFC0
7FE0
0070
0070
E070
E070
7FE0
3FC0
0000
0000
0000
0000
0000
ENDCHAR
STARTCHAR char116
ENCODING 116
SWIDTH 1887 0
DWIDTH 17 0
BBX 10 25 3 -5
BITMAP
0000
0000
1C00
1C00
1C00
1C00
1C00
FFC0
FFC0
1C00
1C00
1C00
1C00
1C00
1C00
1C00
1C00
1C00
0FC0
07C0
0000
0000
0000
0000
0000
ENDCHAR
STARTCHAR char117
ENCODING 117
SWIDTH 1887 0
DWIDTH 17 0
BBX 13 25 1 -5
BITMAP
0000
0000
0000
0000
0000
0000
0000
E038
E038
E038
E038
E038
E038
E038
E038
E038
E078
71F8
7FF8
1F38
0000
0000
0000
0000
0000
ENDCHAR
STARTCHAR char118
ENCODING 118
SWIDTH 1887 0
DWIDTH 17 0
BBX 13 25 1 -5
BITMAP
0000
0000
0000
0000
0000
0000
0000
E038
E038
F078
7070
78F0
38E0
3DE0
1DC0
1FC0
0F80
0F80
0700
0700
0000
0000
0000
0000
0000
ENDCHAR
STARTCHAR char119
ENCODING 119
SWIDTH 1887 0
DWIDTH 17 0
BBX 13 25 1 -5
BITMAP
0000
0000
0000
0000
0000
0000
0000
E038
E038
E038
E038
E038
E038
E038
E738
EFB8
FDF8
F8F8
F078
E038
0000
0000
0000
0000
0000
ENDCHAR
STARTCHAR char120
ENCODING 120
SWIDTH 1887 0
DWIDTH 17 0
BBX 13 25 1 -5
BITMAP
0000
0000
0000
0000
0000
0000
0000
C018
E038
F078
78F0
3DE0
1FC0
0F80
1FC0
3DE0
78F0
F078
E038
C018
0000
0000
0000
0000
0000
ENDCHAR
STARTCHAR char121
ENCODING 121
SWIDTH 1887 0
DWIDTH 17 0
BBX 13 25 1 -5
BITMAP
0000
0000
0000
0000
0000
0000
0000
E038
E038
E038
E038
E038
E038
E038
E038
E038
E078
71F8
7FF8
1F38
0038
0038
7070
7FF0
3FC0
ENDCHAR
STARTCHAR char122
ENCODING 122
SWIDTH 1887 0
DWIDTH 17 0
BBX 13 25 1 -5
BITMAP
0000
0000
0000
0000
0000
0000
0000
FFF8
FFF8
0070
00E0
01C0
0380
0700
0E00
1C00
3800
7000
FFF8
FFF8
0000
0000
0000
0000
0000
ENDCHAR
STARTCHAR char123
ENCODING 123
SWIDTH 1887 0
DWIDTH 17 0
BBX 7 25 7 -5
BITMAP
1E
38
70
70
38
38
38
38
70
F0
F0
70
38
38
38
38
70
70
38
1E
00
00
00
00
00
ENDCHAR
STARTCHAR char124
ENCODING 124
SWIDTH 1887 0
DWIDTH 17 0
BBX 3 25 6 -5
BITMAP
E0
E0
E0
E0
E0
E0
E0
E0
E0
E0
E0
E0
E0
E0
E0
E0
E0
E0
E0
E0
E0
E0
E0
E0
E0
ENDCHAR
STARTCHAR char125
ENCODING 125
SWIDTH 1887 0
DWIDTH 17 0
BBX 7 25 1 -5
BITMAP
F0
38
1C
1C
38
38
38
38
1C
1E
1E
1C
38
38
38
38
1C
1C
38
F0
00
00
00
00
00
ENDCHAR
STARTCHAR char126
ENCODING 126
SWIDTH 1887 0
DWIDTH 17 0
BBX 15 25 0 -5
BITMAP
0000
0000
0000
0000
0000
0000
0000
0000
0000
0000
1E06
3F06
7F8E
77DC
E3FC
C1F8
C0F0
0000
0000
0000
0000
0000
0000
0000
0000
ENDCHAR
STARTCHAR char127
ENCODING 127
SWIDTH 1887 0
DWIDTH 17 0
BBX 15 25 0 -5
BITMAP
007C
00FE
01EE
01EE
01C0
01C0
01C0
03C0
0380
0380
0380
0380
0380
0780
0700
0700
0700
0700
0700
0700
EE00
EE00
EE00
7E00
3C00
ENDCHAR
ENDFONT
